<svg xmlns="http://www.w3.org/2000/svg" version="1.1" xmlns:xlink="http://www.w3.org/1999/xlink" xmlns:svgjs="http://svgjs.dev/svgjs" width="100%" height="100%" viewBox="0 0 1000 600"><rect width="1000" height="600" x="0" y="0" fill="#feff00 "/><g><circle r="166.66666666666666" cx="498.5011088053385" cy="520.7234646926333" fill="#301b89" transform="matrix(0.37669371904378973,0,0,0.3766937190437899,0,103.84674542686659)"/><path d="M489.50221263971656 484.7563495447812L489.50221263971656 484.7563495447812L472.44127400616804 491.9384085702184Q470.45414305051344 485.4376515867199 467.10440801098144 480.04401042137175Q463.75467297144945 474.6503692560236 459.12749660328234 470.8180452701184Q454.5003202351152 466.9857212842131 448.59570253831305 464.8282648180739Q442.71947242659166 462.69919593701536 435.7361264967199 462.69919593701536L435.7361264967199 462.69919593701536Q428.241804035394 462.69919593701536 421.9965353176225 465.197303424124Q415.75126659985096 467.6670233261518 410.8118267957953 471.92516108826874Q405.8723869917397 476.1549112653049 402.1820009312383 481.86081586654166Q398.4916148707369 487.5383328826976 396.0502825537899 493.98231469603456Q393.6089502368428 500.4262965093716 392.35989649328855 507.29609209892027Q391.1108427497342 514.1942752735497 391.1108427497342 520.7801950122906L391.1108427497342 520.7801950122906Q391.1108427497342 531.2552139070983 393.5521750666813 541.6166824615829Q395.99350738362836 552.0065386011482 401.3303733788149 560.2957134447358Q406.6956269590823 568.5848882883236 415.1551273131546 573.7230411879445Q423.64301525230775 578.8611940875658 435.7361264967199 578.8611940875658L435.7361264967199 578.8611940875658Q442.3220462354608 578.8611940875658 446.0124322959621 575.9088852391646Q449.70281835646347 572.9565763907635 449.70281835646347 565.575804269761L449.70281835646347 565.575804269761L449.70281835646347 521.4614970542293L489.3034995441511 521.4614970542293L489.3034995441511 592.8278859473094L477.8349151715161 592.8278859473094L470.8515692416443 581.5580146702398Q461.2849530694216 588.8252364509194 449.759593526625 592.2885218307745Q438.2058463987477 595.723419625549 426.25467307973946 595.723419625549L426.25467307973946 595.723419625549Q415.66610384460864 595.723419625549 405.9291621619012 593.1401493831979Q396.1922204791938 590.5284915557663 387.81788288036375 585.7309896771144Q379.4435452815338 580.9618753835434 372.6021372770659 574.1772425492372Q365.760729272598 567.3926097149308 360.93483980886543 559.1034348713431Q356.0805627600521 550.8142600277555 353.4405173475396 541.0773183450481Q350.8004719350271 531.3403766623406 350.8004719350271 520.7801950122906L350.8004719350271 520.7801950122906Q350.8004719350271 510.1916257771598 353.4405173475396 500.4546840944523Q356.0805627600521 490.7461299968257 360.93483980886543 482.4001799830765Q365.760729272598 474.05422996932725 372.6021372770659 467.26959713502094Q379.4435452815338 460.4849643007146 387.81788288036375 455.71585000714356Q396.1922204791938 450.9183481284918 405.9291621619012 448.3066903010601Q415.66610384460864 445.7234200587091 426.25467307973946 445.7234200587091L426.25467307973946 445.7234200587091Q436.41742853865856 445.7234200587091 446.15437022136604 448.10797720549465Q455.89131190407346 450.52092193736087 464.26564950290344 455.3468114010934Q472.6399871017335 460.20108844990676 479.19751925539356 467.5250854007479Q485.72666382397284 474.87746993666985 489.50221263971656 484.7563495447812ZM556.9795023767299 539.146962559555L556.9795023767299 592.8278859473094L517.3504336039614 592.8278859473094L517.3504336039614 449.1015426833219L595.0188663849747 449.1015426833219Q605.0964590886515 449.1015426833219 614.3224242399049 451.798363265996Q623.5483893911583 454.4951838486701 630.6452856613532 459.94560018417974Q637.7137943464672 465.39601651968945 641.9719321085843 473.6284161931155Q646.2016822856203 481.86081586654166 646.2016822856203 492.93197404804573L646.2016822856203 492.93197404804573Q646.2016822856203 499.91531997791753 644.2145513299658 506.04703835536594Q642.1990327892304 512.1787567328143 638.6789722392139 517.2885220473547Q635.1305241041164 522.3698997768142 630.3330222254644 526.4577120284465Q625.5355203468127 530.5455242800788 619.8580033306569 533.355895203076Q614.180486314501 536.1378785409925 607.8216672564063 537.6424205502738Q601.4912357833923 539.146962559555 595.0188663849747 539.146962559555L595.0188663849747 539.146962559555L556.9795023767299 539.146962559555ZM606.0900245664786 492.93197404804573L606.0900245664786 492.93197404804573Q606.0900245664786 479.05044494354445 599.0499034664454 471.130308706007Q592.0097823664121 463.1817848833886 577.8443774111029 463.1817848833886L577.8443774111029 463.1817848833886L556.9795023767299 463.1817848833886L556.9795023767299 525.5493093058616L577.8443774111029 525.5493093058616Q585.423862627671 525.5493093058616 590.7607286228576 523.1079769889145Q596.0975946180442 520.6666446719674 599.5041048277378 516.2949565695274Q602.8822274523507 511.89488088200653 604.4719322168742 505.9618756001236Q606.0900245664786 500.00048273315986 606.0900245664786 492.93197404804573Z " fill="#99f443" transform="matrix(0.37669371904378973,0,0,0.3766937190437899,0,103.84674542686659)"/><path d="M869.9829253401252 498.5329664107877L869.9829253401252 498.5329664107877L855.0401112735101 504.82336900455414Q853.2996836783968 499.12968444339793 850.3658200180631 494.4056666852334Q847.4319563577293 489.6816489270689 843.3792463862513 486.32510999363626Q839.3265364147734 482.96857106020354 834.1549801321512 481.07896395693774Q829.0082871008877 479.2142201050307 822.8919272666326 479.2142201050307L822.8919272666326 479.2142201050307Q816.3280289079198 479.2142201050307 810.8581136089925 481.4021862246016Q805.3881983100651 483.5652890928138 801.0619925736409 487.2947767966279Q796.7357868372164 490.99940124908323 793.5035641605776 495.9969147721941Q790.2713414839387 500.9695650439462 788.1331018670853 506.6135231023849Q785.9948622502319 512.2574811608235 784.9008791904464 518.2743879896436Q783.8068961306609 524.3161580698224 783.8068961306609 530.0844323850549L783.8068961306609 530.0844323850549Q783.8068961306609 539.2589721364376 785.9451357475144 548.3340588823852Q788.0833753643677 557.4340088796915 792.7576666198148 564.6940782764497Q797.4568211266205 571.9541476732077 804.8660700315312 576.4543961691434Q812.3001821878006 580.9546446650791 822.8919272666326 580.9546446650791L822.8919272666326 580.9546446650791Q828.6602015818651 580.9546446650791 831.892424258504 578.368866523768Q835.1246469351428 575.7830883824568 835.1246469351428 569.3186430291792L835.1246469351428 569.3186430291792L835.1246469351428 530.6811504176651L869.8088825806138 530.6811504176651L869.8088825806138 593.1873643335894L859.7641290316745 593.1873643335894L853.6477691974195 583.3166535441612Q845.2688534895171 589.6816458920041 835.1743734378604 592.7149625577729Q825.0550301348447 595.7234159721829 814.5876013128066 595.7234159721829L814.5876013128066 595.7234159721829Q805.3136085559889 595.7234159721829 796.785513339934 593.4608600985357Q788.2574181238791 591.1734409735298 780.9227589730448 586.9715514938991Q773.5880998222103 582.7945252656273 767.5960562447491 576.8522081908836Q761.6040126672877 570.9098911161398 757.3772599362984 563.6498217193816Q753.1256439539503 556.3897523226236 750.8133615775856 547.8616571065687Q748.5010792012209 539.3335618905139 748.5010792012209 530.0844323850549L748.5010792012209 530.0844323850549Q748.5010792012209 520.8104396282372 750.8133615775856 512.2823444121823Q753.1256439539503 503.77911244748617 757.3772599362984 496.46931654801057Q761.6040126672877 489.15952064853496 767.5960562447491 483.21720357379115Q773.5880998222103 477.2748864990474 780.9227589730448 473.09786027077564Q788.2574181238791 468.89597079114503 796.785513339934 466.6085516661391Q805.3136085559889 464.34599579249186 814.5876013128066 464.34599579249186L814.5876013128066 464.34599579249186Q823.4886452992429 464.34599579249186 832.0167405152978 466.4345089066278Q840.5448357313527 468.5478852721224 847.879494882187 472.7746380031117Q855.2141540330214 477.0262539854598 860.9575650968951 483.44097283602Q866.6761129094101 489.880554937939 869.9829253401252 498.5329664107877ZM977.3424447072535 501.14360780345754L977.3424447072535 501.14360780345754L960.7337927996014 528.6672270576055Q959.6895362425334 525.1863718673791 958.0236984014965 520.8104396282372Q956.3578605604596 516.4345073890953 953.8963986759422 512.630429931205Q951.4598000427837 508.8263524733146 948.0535346066334 506.26543758336226Q944.6472691704832 503.67965944205116 940.1967471772651 503.67965944205116L940.1967471772651 503.67965944205116Q936.0694474517109 503.67965944205116 933.0609940373008 505.76817255618704Q930.0525406228909 507.88154892168166 927.9391642573961 511.2380878551144Q925.8506511432603 514.594626788547 924.4831723185284 518.8462427708951Q923.1405567451553 523.0729955018844 922.3946592043926 527.3992012383087Q921.6487616636297 531.7502702260919 921.4001291500421 535.7035271921347Q921.1266333850957 539.6816474095365 921.1266333850957 542.5657845671527L921.1266333850957 542.5657845671527L921.1266333850957 593.1873643335894L891.4896377654532 593.1873643335894L891.4896377654532 492.2177005656625L902.8521436364067 492.2177005656625L914.8362307913293 515.7383363510501Q917.2728294244879 510.0695150412526 920.4304623470505 505.29577078037056Q923.5880952696131 500.5220265194885 927.6905317438086 497.0908978319796Q931.792968218004 493.63490589311186 936.989387751985 491.6955722871285Q942.185807285966 489.78110193250393 948.7497056446788 489.78110193250393L948.7497056446788 489.78110193250393Q952.155971080829 489.78110193250393 956.3578605604596 490.3529567137555Q960.5597500400901 490.92481149500696 964.5627335088506 492.26742706838Q968.5905802289698 493.63490589311186 971.99684566512 495.8228720126828Q975.4031111012702 497.98597488089496 977.3424447072535 501.14360780345754ZM1089.3016655757524 492.2177005656625L1089.3016655757524 593.1873643335894L1059.7641229615447 593.1873643335894L1059.7641229615447 581.1286874245905Q1054.5179769248466 588.2893038159134 1047.1335912712943 591.7452957547812Q1039.7492056177425 595.201287693649 1030.9227513853825 595.201287693649L1030.9227513853825 595.201287693649Q1019.3862027549177 595.201287693649 1010.2862527576114 591.0988512194533Q1001.1863027603049 586.9715514938991 994.8959001665385 579.8606616052937Q988.605497572772 572.7249084653292 985.2986851420569 563.1276934408477Q981.9670094599829 553.5056151650074 981.9670094599829 542.4911948130764L981.9670094599829 542.4911948130764Q981.9670094599829 531.4767744611455 985.2986851420569 521.8546961853051Q988.605497572772 512.2574811608235 994.8959001665385 505.1217280208592Q1001.1863027603049 497.98597488089496 1010.2862527576114 493.8835384066995Q1019.3862027549177 489.78110193250393 1030.9227513853825 489.78110193250393L1030.9227513853825 489.78110193250393Q1036.7656154546912 489.78110193250393 1042.0614879941072 491.5215295276172Q1047.3573605335232 493.2868203740892 1051.7581560240242 496.46931654801057Q1056.1838147658832 499.65181272193195 1059.5403536993163 504.1520612178676Q1062.8968926327489 508.6523097138033 1064.8362262387323 514.1719515154481L1064.8362262387323 514.1719515154481L1077.9391597047988 492.2177005656625L1089.3016655757524 492.2177005656625ZM1059.5900802020337 542.4911948130764L1059.5900802020337 542.4911948130764Q1059.5900802020337 538.5628010983922 1059.1922681802935 534.1868688592504Q1058.7944561585532 529.8109366201086 1057.8496526069202 525.5344573864018Q1056.8799858039288 521.2579781526949 1055.1644214601743 517.3544476893694Q1053.4737203677787 513.4757804774029 1050.8133524723912 510.442463811634Q1048.1281213256448 507.434010397224 1044.373770370472 505.69358280211077Q1040.6194194152995 503.9531552069975 1035.6467691435473 503.9531552069975L1035.6467691435473 503.9531552069975Q1030.6492556204362 503.9531552069975 1026.9943576706983 505.74330930482824Q1023.3145964696018 507.53346340265904 1020.6790918255732 510.541916817069Q1018.0684504329033 513.5503702314791 1016.3528860891489 517.4787639461633Q1014.6621849967531 521.4320209122062 1013.6925181937614 525.708500145913Q1012.7477146421286 529.9849793796199 1012.3499026203884 534.3111851160443Q1011.9520905986483 538.6373908524686 1011.9520905986483 542.4911948130764L1011.9520905986483 542.4911948130764Q1011.9520905986483 546.3449987736843 1012.3499026203884 550.6960677614675Q1012.7477146421286 555.0720000006093 1013.6925181937614 559.3484792343161Q1014.6621849967531 563.6498217193816 1016.3528860891489 567.5782154340659Q1018.0684504329033 571.5066091487499 1020.6790918255732 574.51506256316Q1023.3145964696018 577.5483792289288 1026.9943576706983 579.3385333267597Q1030.6492556204362 581.1286874245905 1035.6467691435473 581.1286874245905L1035.6467691435473 581.1286874245905Q1040.1718808908417 581.1286874245905 1043.7273258351443 579.2390803213245Q1047.2579075280883 577.3743364694176 1049.9182754234757 574.2167035468549Q1052.6035065702217 571.0839338756512 1054.4185239194112 567.0560871555319Q1056.2584045199596 563.0282404354127 1057.4021140824625 558.7517612017059Q1058.5458236449658 554.4752819679991 1059.0679519234995 550.223665985651Q1059.5900802020337 545.9969132546616 1059.5900802020337 542.4911948130764ZM1207.128613764919 517.2301314325757L1207.128613764919 517.2301314325757L1194.3737658178748 522.3022347097628Q1191.315585900747 512.6801564339224 1184.154969509424 507.53346340265904Q1176.9694898667426 502.36190712003685 1166.9247363178029 502.36190712003685L1166.9247363178029 502.36190712003685Q1161.5045475215934 502.36190712003685 1157.2777947906038 504.0774714637913Q1153.0261788082557 505.76817255618704 1149.8436826343345 508.7517627192383Q1146.6363232090544 511.7104896309308 1144.4234938381246 515.6637465969737Q1142.1858012158364 519.5921403116579 1140.7934591397457 524.0426623048761Q1139.401117063655 528.4931842980942 1138.7795357796863 533.2669285589762Q1138.1579544957171 538.0406728198583 1138.1579544957171 542.4911948130764L1138.1579544957171 542.4911948130764Q1138.1579544957171 547.2898023253172 1138.7049460256098 552.1878628429931Q1139.227074304144 557.0859233606689 1140.4951001234404 561.5861718566046Q1141.7631259427376 566.0864203525402 1143.8516390568734 569.9899508158655Q1145.9401521710092 573.8686180278323 1149.1475115962894 576.7527551854484Q1152.3300077702106 579.6368923430648 1156.7308032607111 581.3027301841016Q1161.1564620025706 582.9685680251387 1166.9247363178029 582.9685680251387L1166.9247363178029 582.9685680251387Q1171.5493010705327 582.9685680251387 1175.7511905501633 581.5513626976892Q1179.953080029794 580.1590206215988 1183.458798471379 577.6229689830052Q1186.9396536616055 575.0869173444116 1189.6497480597104 571.6060621541851Q1192.3598424578154 568.1003437125999 1193.926227293417 563.823864478893L1193.926227293417 563.823864478893L1206.7805282458962 568.5478822370576Q1203.8963910882799 575.4350028634342 1199.147510078757 580.4573796379038Q1194.3737658178748 585.5046196637322 1188.3319957376962 588.7617055917299Q1182.315088908876 592.0436547710863 1175.4031050311405 593.6349028580469Q1168.491121153405 595.201287693649 1161.429957767517 595.201287693649L1161.429957767517 595.201287693649Q1149.9679988911284 595.201287693649 1140.1718778557765 591.2977572303234Q1130.4006200717836 587.4190900183569 1123.2648669318196 580.3827898838276Q1116.1291137918552 573.3464897492984 1112.126130323095 563.6746849707405Q1108.0982836029757 554.0277434435413 1108.0982836029757 542.4911948130764L1108.0982836029757 542.4911948130764Q1108.0982836029757 530.8551931771765 1112.0764038203774 521.1585251472599Q1116.0545240377787 511.46185711734324 1123.1405506750257 504.47528348553146Q1130.2265773122726 497.463846602361 1139.9978350962656 493.63490589311186Q1149.793956131617 489.78110193250393 1161.429957767517 489.78110193250393L1161.429957767517 489.78110193250393Q1168.7646169183513 489.78110193250393 1175.7511905501633 491.3972132708234Q1182.7377641819749 493.01332460914284 1188.729807759436 496.36986354257556Q1194.7218513368975 499.75126572736696 1199.4955955977794 504.8979587586304Q1204.2444766073027 510.0695150412526 1207.128613764919 517.2301314325757ZM1255.636817165861 467.8517142340771L1255.636817165861 467.8517142340771Q1255.636817165861 471.15852666479225 1254.3687913465642 474.14211682784355Q1253.1007655272674 477.10084373953606 1250.9376626590551 479.288809859107Q1248.7496965394844 481.4767759786779 1245.766106376433 482.7448017979747Q1242.8073794647403 484.0128276172715 1239.4757037826666 484.0128276172715L1239.4757037826666 484.0128276172715Q1236.1440281005925 484.0128276172715 1233.2350276916177 482.7448017979747Q1230.3011640312839 481.4767759786779 1228.113197911713 479.288809859107Q1225.9252317921419 477.10084373953606 1224.657205972845 474.14211682784355Q1223.3891801535483 471.15852666479225 1223.3891801535483 467.8517142340771L1223.3891801535483 467.8517142340771Q1223.3891801535483 464.5200385520032 1224.657205972845 461.58617489166943Q1225.9252317921419 458.6523112313357 1228.113197911713 456.4892083631235Q1230.3011640312839 454.30124224355257 1233.2350276916177 453.0332164242558Q1236.1440281005925 451.765190604959 1239.4757037826666 451.765190604959L1239.4757037826666 451.765190604959Q1242.8073794647403 451.765190604959 1245.766106376433 453.0332164242558Q1248.7496965394844 454.30124224355257 1250.9376626590551 456.4892083631235Q1253.1007655272674 458.6523112313357 1254.3687913465642 461.58617489166943Q1255.636817165861 464.5200385520032 1255.636817165861 467.8517142340771ZM1254.3439280952052 492.31715357109755L1254.3439280952052 593.1873643335894L1224.7069324755626 593.1873643335894L1224.7069324755626 492.31715357109755L1254.3439280952052 492.31715357109755ZM1303.3742597746814 545.2758789652576L1303.3742597746814 545.2758789652576Q1308.7944485708913 546.5190415331956 1314.2146373671007 547.215212571241Q1319.6348261633107 547.9113836092863 1325.129604713597 547.9113836092863L1325.129604713597 547.9113836092863Q1330.8978790288293 547.9113836092863 1335.845666049223 546.8174005495008Q1340.7934530696161 545.7234174897153 1344.423487767995 543.1376393484043Q1348.0286592150155 540.576724458452 1350.1420355805099 536.2753819733863Q1352.2305486946457 531.9989027396795 1352.2305486946457 525.609047140478L1352.2305486946457 525.609047140478Q1352.2305486946457 520.4623541092145 1350.8382066185554 516.1858748755077Q1349.4458645424647 511.88453239044213 1346.6860436416423 508.8263524733146Q1343.9262227408199 505.76817255618704 1339.8983760207007 504.0774714637913Q1335.8953925519404 502.36190712003685 1330.5497935098065 502.36190712003685L1330.5497935098065 502.36190712003685Q1325.5771432380548 502.36190712003685 1321.599023020653 504.2017877205851Q1317.6209028032513 506.0416683211334 1314.612449388841 509.1495747409785Q1311.5791327230722 512.2574811608235 1309.440893106219 516.359917635019Q1307.3026534893656 520.4623541092145 1305.910311413275 524.9128761024326Q1304.5179693371842 529.3882613470096 1303.896388053215 533.913373094304Q1303.2748067692464 538.4633480929572 1303.2748067692464 542.4911948130764L1303.2748067692464 542.4911948130764Q1303.2748067692464 543.1873658511217 1303.2748067692464 543.8835368891671Q1303.2748067692464 544.5797079272123 1303.3742597746814 545.2758789652576ZM1376.1738597531325 525.3604146268904L1376.1738597531325 525.3604146268904Q1376.1738597531325 531.5513642152218 1374.1847996444317 536.4245614815388Q1372.1708762843718 541.2728954964972 1368.7148843455043 544.927793446235Q1365.2588924066363 548.6075546473315 1360.7089174079833 551.1436062859252Q1356.15894240933 553.6796579245188 1351.0122493780668 555.2957692628381Q1345.8655563468033 556.9118806011576 1340.3956410478759 557.6080516392028Q1334.9257257489485 558.3042226772482 1329.779032717685 558.3042226772482L1329.779032717685 558.3042226772482Q1323.2151343589721 558.3042226772482 1316.8252787597708 557.384282376974Q1310.4602864119283 556.4643420767 1304.244473572238 554.4752819679991L1304.244473572238 554.4752819679991Q1305.2141403752298 560.2435562832316 1307.3026534893656 565.4399758172125Q1309.41602985486 570.6363953511934 1312.8968850450865 574.51506256316Q1316.402603486672 578.4185930264855 1321.4995700152176 580.6811489001327Q1326.6213997951227 582.9685680251387 1333.6079734269342 582.9685680251387L1333.6079734269342 582.9685680251387Q1338.2574014310226 582.9685680251387 1342.4344276592942 581.5513626976892Q1346.6363171389248 580.1590206215988 1350.1420355805099 577.6229689830052Q1353.6228907707364 575.0869173444116 1356.3081219174828 571.6060621541851Q1358.9684898128698 568.1003437125999 1360.634327653907 563.823864478893L1360.634327653907 563.823864478893L1373.3891756009511 568.5478822370576Q1370.5050384433353 575.4350028634342 1365.4826616688651 580.4573796379038Q1360.4602848943955 585.5046196637322 1354.1201557979116 588.7617055917299Q1347.7800267014277 592.0436547710863 1340.6442735614637 593.6349028580469Q1333.5333836728578 595.201287693649 1326.5468100410462 595.201287693649L1326.5468100410462 595.201287693649Q1315.0102614105813 595.201287693649 1305.2141403752298 591.2977572303234Q1295.418019339878 587.4190900183569 1288.331992702631 580.4325163865451Q1281.270829316743 573.4210795033746 1277.2429825966237 563.724411473458Q1273.2151358765045 554.0277434435413 1273.2151358765045 542.4911948130764L1273.2151358765045 542.4911948130764Q1273.2151358765045 530.9546461826114 1277.2429825966237 521.2579781526949Q1281.270829316743 511.53644687141946 1288.331992702631 504.5498732396078Q1295.418019339878 497.563299607796 1305.2141403752298 493.6597691444706Q1315.0102614105813 489.78110193250393 1326.5468100410462 489.78110193250393L1326.5468100410462 489.78110193250393Q1332.1410415967675 489.78110193250393 1337.9839056660762 490.5767259759843Q1343.8516329867434 491.3474867681059 1349.3464115370298 493.0630511118604Q1354.8660533386746 494.7537522042561 1359.7641138563504 497.463846602361Q1364.6373111226676 500.1739410004659 1368.2673458210465 504.1520612178676Q1371.8973805194255 508.13018143526926 1374.0356201362788 513.3763274719678Q1376.1738597531325 518.6224735086662 1376.1738597531325 525.3604146268904ZM1424.1847981268993 476.40467270149077L1424.1847981268993 593.1873643335894L1394.6223922613326 593.1873643335894L1394.6223922613326 445.7234205247802L1405.9848981322862 445.7234205247802L1424.1847981268993 476.40467270149077ZM1473.11567680094 545.2758789652576L1473.11567680094 545.2758789652576Q1478.53586559715 546.5190415331956 1483.9560543933594 547.215212571241Q1489.3762431895693 547.9113836092863 1494.8958849912142 547.9113836092863L1494.8958849912142 547.9113836092863Q1500.664159306447 547.9113836092863 1505.5870830754816 546.8174005495008Q1510.5348700958748 545.7234174897153 1514.1649047942537 543.1376393484043Q1517.7949394926327 540.576724458452 1519.8834526067685 536.2753819733863Q1521.9968289722633 531.9989027396795 1521.9968289722633 525.609047140478L1521.9968289722633 525.609047140478Q1521.9968289722633 520.4623541092145 1520.579623644814 516.1858748755077Q1519.1872815687234 511.88453239044213 1516.427460667901 508.8263524733146Q1513.6925030184375 505.76817255618704 1509.6646562983183 504.0774714637913Q1505.636809578199 502.36190712003685 1500.316073787424 502.36190712003685L1500.316073787424 502.36190712003685Q1495.3185602643134 502.36190712003685 1491.3404400469117 504.2017877205851Q1487.3623198295095 506.0416683211334 1484.3538664150997 509.1495747409785Q1481.3454130006899 512.2574811608235 1479.2071733838366 516.359917635019Q1477.0689337669828 520.4623541092145 1475.6517284395336 524.9128761024326Q1474.259386363443 529.3882613470096 1473.6378050794738 533.913373094304Q1473.0410870468636 538.4633480929572 1473.0410870468636 542.4911948130764L1473.0410870468636 542.4911948130764Q1473.0410870468636 543.1873658511217 1473.0410870468636 543.8835368891671Q1473.0410870468636 544.5797079272123 1473.11567680094 545.2758789652576ZM1545.9401400307497 525.3604146268904L1545.9401400307497 525.3604146268904Q1545.9401400307497 531.5513642152218 1543.9262166706903 536.4245614815388Q1541.9122933106305 541.2728954964972 1538.456301371763 544.927793446235Q1535.000309432895 548.6075546473315 1530.4751976856005 551.1436062859252Q1525.9252226869476 553.6796579245188 1520.753666404325 555.2957692628381Q1515.606973373062 556.9118806011576 1510.1370580741345 557.6080516392028Q1504.6671427752071 558.3042226772482 1499.520449743944 558.3042226772482L1499.520449743944 558.3042226772482Q1492.9565513852308 558.3042226772482 1486.591559037388 557.384282376974Q1480.2017034381865 556.4643420767 1473.9858905984966 554.4752819679991L1473.9858905984966 554.4752819679991Q1474.955557401488 560.2435562832316 1477.0689337669828 565.4399758172125Q1479.157446881119 570.6363953511934 1482.6631653227041 574.51506256316Q1486.1440205129306 578.4185930264855 1491.2658502928352 580.6811489001327Q1496.3628168213809 582.9685680251387 1503.3742537045514 582.9685680251387L1503.3742537045514 582.9685680251387Q1507.9988184572812 582.9685680251387 1512.2007079369118 581.5513626976892Q1516.402597416542 580.1590206215988 1519.8834526067685 577.6229689830052Q1523.389171048354 575.0869173444116 1526.049538943741 571.6060621541851Q1528.7099068391285 568.1003437125999 1530.3757446801656 563.823864478893L1530.3757446801656 563.823864478893L1543.1305926272098 568.5478822370576Q1540.2464554695935 575.4350028634342 1535.2240786951238 580.4573796379038Q1530.2017019206542 585.5046196637322 1523.8615728241703 588.7617055917299Q1517.5214437276863 592.0436547710863 1510.4105538390809 593.6349028580469Q1503.2748006991164 595.201287693649 1496.288227067305 595.201287693649L1496.288227067305 595.201287693649Q1484.75167843684 595.201287693649 1474.955557401488 591.2977572303234Q1465.1594363661366 587.4190900183569 1458.0982729802486 580.4325163865451Q1451.0122463430016 573.4210795033746 1446.9843996228824 563.724411473458Q1442.9565529027632 554.0277434435413 1442.9565529027632 542.4911948130764L1442.9565529027632 542.4911948130764Q1442.9565529027632 530.9546461826114 1446.9843996228824 521.2579781526949Q1451.0122463430016 511.53644687141946 1458.0982729802486 504.5498732396078Q1465.1594363661366 497.563299607796 1474.955557401488 493.6597691444706Q1484.75167843684 489.78110193250393 1496.288227067305 489.78110193250393L1496.288227067305 489.78110193250393Q1501.8824586230262 489.78110193250393 1507.7253226923349 490.5767259759843Q1513.593050013002 491.3474867681059 1519.112691814647 493.0630511118604Q1524.6074703649333 494.7537522042561 1529.505530882609 497.463846602361Q1534.4035914002848 500.1739410004659 1538.0336260986637 504.1520612178676Q1541.6636607970431 508.13018143526926 1543.8019004138964 513.3763274719678Q1545.9401400307497 518.6224735086662 1545.9401400307497 525.3604146268904ZM1651.7084113109172 546.170956014173L1651.7084113109172 593.1873643335894L1616.9993124140879 593.1873643335894L1616.9993124140879 467.30472270418437L1685.0003048802978 467.30472270418437Q1693.8267591126578 467.30472270418437 1701.9073158042552 469.66673158326665Q1710.012735747211 472.0287404623489 1716.2036853355426 476.8024847232309Q1722.4194981752325 481.57622898411296 1726.124122627688 488.78657187815355Q1729.8536103315018 495.9969147721941 1729.8536103315018 505.69358280211077L1729.8536103315018 505.69358280211077Q1729.8536103315018 511.80994263636586 1728.0883194850298 517.1804049298581Q1726.3478918899168 522.5508672233505 1723.2399854700716 527.0262524679274Q1720.1320790502264 531.4767744611455 1715.9550528219547 535.0570826568071Q1711.7531633423241 538.6373908524686 1706.780513070572 541.0988527369859Q1701.7829995474613 543.5354513701444 1696.2384944944574 544.8532036921587Q1690.693989441454 546.170956014173 1685.0003048802978 546.170956014173L1685.0003048802978 546.170956014173L1651.7084113109172 546.170956014173ZM1694.6969729102148 505.69358280211077L1694.6969729102148 505.69358280211077Q1694.6969729102148 493.5354528876768 1688.5557498246003 486.5986057585826Q1682.3896634876278 479.6368953781296 1669.9580378082474 479.6368953781296L1669.9580378082474 479.6368953781296L1651.7084113109172 479.6368953781296L1651.7084113109172 534.2614586133267L1669.9580378082474 534.2614586133267Q1676.6213891723955 534.2614586133267 1681.2956804278424 532.1232189964733Q1685.9699716832893 529.9849793796199 1688.928698594982 526.1560386703707Q1691.9122887580334 522.3022347097628 1693.304630834124 517.1058151757818Q1694.6969729102148 511.88453239044213 1694.6969729102148 505.69358280211077ZM1768.2176071780696 545.2758789652576L1768.2176071780696 545.2758789652576Q1773.6377959742795 546.5190415331956 1779.0579847704894 547.215212571241Q1784.4781735666993 547.9113836092863 1789.9729521169852 547.9113836092863L1789.9729521169852 547.9113836092863Q1795.7412264322174 547.9113836092863 1800.689013452611 546.8174005495008Q1805.6368004730043 545.7234174897153 1809.2668351713833 543.1376393484043Q1812.8968698697622 540.576724458452 1814.9853829838985 536.2753819733863Q1817.0738960980343 531.9989027396795 1817.0738960980343 525.609047140478L1817.0738960980343 525.609047140478Q1817.0738960980343 520.4623541092145 1815.6815540219436 516.1858748755077Q1814.289211945853 511.88453239044213 1811.5293910450305 508.8263524733146Q1808.7695701442085 505.76817255618704 1804.7665866754478 504.0774714637913Q1800.7387399553286 502.36190712003685 1795.393140913195 502.36190712003685L1795.393140913195 502.36190712003685Q1790.420490641443 502.36190712003685 1786.4423704240412 504.2017877205851Q1782.4642502066395 506.0416683211334 1779.4557967922296 509.1495747409785Q1776.4473433778194 512.2574811608235 1774.2842405096071 516.359917635019Q1772.1460008927538 520.4623541092145 1770.7536588166631 524.9128761024326Q1769.3613167405724 529.3882613470096 1768.7397354566037 533.913373094304Q1768.1430174239931 538.4633480929572 1768.1430174239931 542.4911948130764L1768.1430174239931 542.4911948130764Q1768.1430174239931 543.1873658511217 1768.1430174239931 543.8835368891671Q1768.1430174239931 544.5797079272123 1768.2176071780696 545.2758789652576ZM1841.0420704078792 525.3604146268904L1841.0420704078792 525.3604146268904Q1841.0420704078792 531.5513642152218 1839.0281470478199 536.4245614815388Q1837.01422368776 541.2728954964972 1833.5582317488925 544.927793446235Q1830.102239810025 548.6075546473315 1825.5522648113715 551.1436062859252Q1821.0022898127181 553.6796579245188 1815.855596781455 555.2957692628381Q1810.7089037501914 556.9118806011576 1805.238988451264 557.6080516392028Q1799.7690731523367 558.3042226772482 1794.6223801210735 558.3042226772482L1794.6223801210735 558.3042226772482Q1788.0584817623603 558.3042226772482 1781.668626163159 557.384282376974Q1775.3036338153165 556.4643420767 1769.087820975626 554.4752819679991L1769.087820975626 554.4752819679991Q1770.057487778618 560.2435562832316 1772.1460008927538 565.4399758172125Q1774.2593772582486 570.6363953511934 1777.7402324484747 574.51506256316Q1781.2459508900602 578.4185930264855 1786.3677806699648 580.6811489001327Q1791.4647471985108 582.9685680251387 1798.4513208303224 582.9685680251387L1798.4513208303224 582.9685680251387Q1803.1007488344108 582.9685680251387 1807.3026383140414 581.5513626976892Q1811.479664542313 580.1590206215988 1814.9853829838985 577.6229689830052Q1818.4911014254835 575.0869173444116 1821.151469320871 571.6060621541851Q1823.8118372162585 568.1003437125999 1825.477675057295 563.823864478893L1825.477675057295 563.823864478893L1838.2325230043393 568.5478822370576Q1835.3483858467234 575.4350028634342 1830.3260090722538 580.4573796379038Q1825.3036322977841 585.5046196637322 1818.9635032012998 588.7617055917299Q1812.6233741048159 592.0436547710863 1805.4876209648519 593.6349028580469Q1798.3767310762464 595.201287693649 1791.3901574444344 595.201287693649L1791.3901574444344 595.201287693649Q1779.8536088139695 595.201287693649 1770.057487778618 591.2977572303234Q1760.261366743266 587.4190900183569 1753.1753401060196 580.4325163865451Q1746.1141767201316 573.4210795033746 1742.0863300000124 563.724411473458Q1738.0584832798932 554.0277434435413 1738.0584832798932 542.4911948130764L1738.0584832798932 542.4911948130764Q1738.0584832798932 530.9546461826114 1742.0863300000124 521.2579781526949Q1746.1141767201316 511.53644687141946 1753.1753401060196 504.5498732396078Q1760.261366743266 497.563299607796 1770.057487778618 493.6597691444706Q1779.8536088139695 489.78110193250393 1791.3901574444344 489.78110193250393L1791.3901574444344 489.78110193250393Q1796.9843890001557 489.78110193250393 1802.8272530694644 490.5767259759843Q1808.6949803901316 491.3474867681059 1814.189758940418 493.0630511118604Q1819.7094007420628 494.7537522042561 1824.6074612597386 497.463846602361Q1829.5055217774147 500.1739410004659 1833.1106932244347 504.1520612178676Q1836.7407279228137 508.13018143526926 1838.878967539667 513.3763274719678Q1841.0420704078792 518.6224735086662 1841.0420704078792 525.3604146268904ZM1945.3185466065215 501.14360780345754L1945.3185466065215 501.14360780345754L1928.7098946988694 528.6672270576055Q1927.6656381418015 525.1863718673791 1925.9998003007645 520.8104396282372Q1924.3339624597274 516.4345073890953 1921.8973638265688 512.630429931205Q1919.4359019420517 508.8263524733146 1916.0296365059016 506.26543758336226Q1912.623371069751 503.67965944205116 1908.172849076533 503.67965944205116L1908.172849076533 503.67965944205116Q1904.045549350979 503.67965944205116 1901.0370959365687 505.76817255618704Q1898.0286425221589 507.88154892168166 1895.915266156664 511.2380878551144Q1893.8267530425283 514.594626788547 1892.484137469155 518.8462427708951Q1891.1166586444233 523.0729955018844 1890.3707611036607 527.3992012383087Q1889.6248635628976 531.7502702260919 1889.3762310493103 535.7035271921347Q1889.102735284364 539.6816474095365 1889.102735284364 542.5657845671527L1889.102735284364 542.5657845671527L1889.102735284364 593.1873643335894L1859.4657396647212 593.1873643335894L1859.4657396647212 492.2177005656625L1870.8282455356748 492.2177005656625L1882.8123326905975 515.7383363510501Q1885.2489313237556 510.0695150412526 1888.4065642463183 505.29577078037056Q1891.564197168881 500.5220265194885 1895.6666336430767 497.0908978319796Q1899.769070117272 493.63490589311186 1904.965489651253 491.6955722871285Q1910.161909185234 489.78110193250393 1916.7258075439468 489.78110193250393L1916.7258075439468 489.78110193250393Q1920.1320729800968 489.78110193250393 1924.3339624597274 490.3529567137555Q1928.535851939358 490.92481149500696 1932.5388354081183 492.26742706838Q1936.566682128238 493.63490589311186 1939.972947564388 495.8228720126828Q1943.3792130005381 497.98597488089496 1945.3185466065215 501.14360780345754ZM1979.3066112139472 545.2758789652576L1979.3066112139472 545.2758789652576Q1984.7268000101567 546.5190415331956 1990.1469888063666 547.215212571241Q1995.5671776025765 547.9113836092863 2001.0868194042214 547.9113836092863L2001.0868194042214 547.9113836092863Q2006.855093719454 547.9113836092863 2011.7780174884883 546.8174005495008Q2016.7258045088815 545.7234174897153 2020.355839207261 543.1376393484043Q2023.98587390564 540.576724458452 2026.0743870197762 536.2753819733863Q2028.1877633852705 531.9989027396795 2028.1877633852705 525.609047140478L2028.1877633852705 525.609047140478Q2028.1877633852705 520.4623541092145 2026.7705580578213 516.1858748755077Q2025.3782159817306 511.88453239044213 2022.6183950809082 508.8263524733146Q2019.8834374314447 505.76817255618704 2015.8555907113255 504.0774714637913Q2011.8277439912058 502.36190712003685 2006.5070082004313 502.36190712003685L2006.5070082004313 502.36190712003685Q2001.5094946773202 502.36190712003685 1997.5313744599184 504.2017877205851Q1993.5532542425171 506.0416683211334 1990.5448008281069 509.1495747409785Q1987.536347413697 512.2574811608235 1985.3981077968433 516.359917635019Q1983.2350049286315 520.4623541092145 1981.8426628525408 524.9128761024326Q1980.45032077645 529.3882613470096 1979.828739492481 533.913373094304Q1979.2320214598708 538.4633480929572 1979.2320214598708 542.4911948130764L1979.2320214598708 542.4911948130764Q1979.2320214598708 543.1873658511217 1979.2320214598708 543.8835368891671Q1979.2320214598708 544.5797079272123 1979.3066112139472 545.2758789652576ZM2052.131074443757 525.3604146268904L2052.131074443757 525.3604146268904Q2052.131074443757 531.5513642152218 2050.1171510836975 536.4245614815388Q2048.1032277236377 541.2728954964972 2044.6472357847701 544.927793446235Q2041.1912438459021 548.6075546473315 2036.6661320986082 551.1436062859252Q2032.1161570999548 553.6796579245188 2026.9446008173322 555.2957692628381Q2021.7979077860691 556.9118806011576 2016.3279924871417 557.6080516392028Q2010.8580771882143 558.3042226772482 2005.7113841569508 558.3042226772482L2005.7113841569508 558.3042226772482Q1999.147485798238 558.3042226772482 1992.7824934503956 557.384282376974Q1986.3926378511942 556.4643420767 1980.1768250115038 554.4752819679991L1980.1768250115038 554.4752819679991Q1981.1464918144957 560.2435562832316 1983.2350049286315 565.4399758172125Q1985.3483812941258 570.6363953511934 1988.8292364843524 574.51506256316Q1992.3349549259378 578.4185930264855 1997.4567847058424 580.6811489001327Q2002.5537512343885 582.9685680251387 2009.5651881175586 582.9685680251387L2009.5651881175586 582.9685680251387Q2014.1897528702884 582.9685680251387 2018.391642349919 581.5513626976892Q2022.5935318295492 580.1590206215988 2026.0743870197762 577.6229689830052Q2029.5801054613612 575.0869173444116 2032.2404733567482 571.6060621541851Q2034.9008412521362 568.1003437125999 2036.5666790931728 563.823864478893L2036.5666790931728 563.823864478893L2049.321527040217 568.5478822370576Q2046.4373898826007 575.4350028634342 2041.415013108131 580.4573796379038Q2036.3926363336618 585.5046196637322 2030.0525072371775 588.7617055917299Q2023.7123781406935 592.0436547710863 2016.601488252088 593.6349028580469Q2009.4657351121236 595.201287693649 2002.479161480312 595.201287693649L2002.479161480312 595.201287693649Q1990.9426128498471 595.201287693649 1981.1464918144957 591.2977572303234Q1971.3503707791438 587.4190900183569 1964.2892073932558 580.4325163865451Q1957.2031807560088 573.4210795033746 1953.1753340358896 563.724411473458Q1949.1474873157708 554.0277434435413 1949.1474873157708 542.4911948130764L1949.1474873157708 542.4911948130764Q1949.1474873157708 530.9546461826114 1953.1753340358896 521.2579781526949Q1957.2031807560088 511.53644687141946 1964.2892073932558 504.5498732396078Q1971.3503707791438 497.563299607796 1981.1464918144957 493.6597691444706Q1990.9426128498471 489.78110193250393 2002.479161480312 489.78110193250393L2002.479161480312 489.78110193250393Q2008.073393036033 489.78110193250393 2013.916257105342 490.5767259759843Q2019.7839844260093 491.3474867681059 2025.3036262276541 493.0630511118604Q2030.7984047779405 494.7537522042561 2035.6964652956158 497.463846602361Q2040.594525813292 500.1739410004659 2044.224560511671 504.1520612178676Q2047.8545952100503 508.13018143526926 2049.9928348269036 513.3763274719678Q2052.131074443757 518.6224735086662 2052.131074443757 525.3604146268904ZM2101.608944647691 467.8517142340771L2101.608944647691 467.8517142340771Q2101.608944647691 471.15852666479225 2100.3409188283936 474.14211682784355Q2099.072893009097 477.10084373953606 2096.884926889526 479.288809859107Q2094.696960769955 481.4767759786779 2091.713370606904 482.7448017979747Q2088.754643695211 484.0128276172715 2085.4229680131375 484.0128276172715L2085.4229680131375 484.0128276172715Q2082.1161555824224 484.0128276172715 2079.1822919220886 482.7448017979747Q2076.2484282617547 481.4767759786779 2074.060462142184 479.288809859107Q2071.872496022613 477.10084373953606 2070.604470203316 474.14211682784355Q2069.336444384019 471.15852666479225 2069.336444384019 467.8517142340771L2069.336444384019 467.8517142340771Q2069.336444384019 464.5200385520032 2070.604470203316 461.58617489166943Q2071.872496022613 458.6523112313357 2074.060462142184 456.4892083631235Q2076.2484282617547 454.30124224355257 2079.1822919220886 453.0332164242558Q2082.1161555824224 451.765190604959 2085.4229680131375 451.765190604959L2085.4229680131375 451.765190604959Q2088.754643695211 451.765190604959 2091.713370606904 453.0332164242558Q2094.696960769955 454.30124224355257 2096.884926889526 456.4892083631235Q2099.072893009097 458.6523112313357 2100.3409188283936 461.58617489166943Q2101.608944647691 464.5200385520032 2101.608944647691 467.8517142340771ZM2100.291192325676 492.31715357109755L2100.291192325676 593.1873643335894L2070.6541967060334 593.1873643335894L2070.6541967060334 492.31715357109755L2100.291192325676 492.31715357109755ZM2210.8580711180844 501.14360780345754L2210.8580711180844 501.14360780345754L2194.2494192104327 528.6672270576055Q2193.2051626533644 525.1863718673791 2191.539324812328 520.8104396282372Q2189.8734869712907 516.4345073890953 2187.436888338132 512.630429931205Q2185.0002897049735 508.8263524733146 2181.569161017465 506.26543758336226Q2178.1628955813144 503.67965944205116 2173.7123735880964 503.67965944205116L2173.7123735880964 503.67965944205116Q2169.6099371139007 503.67965944205116 2166.601483699491 505.76817255618704Q2163.5681670337217 507.88154892168166 2161.479653919586 511.2380878551144Q2159.3662775540915 514.594626788547 2158.0236619807183 518.8462427708951Q2156.6561831559866 523.0729955018844 2155.9351488665825 527.3992012383087Q2155.1892513258194 531.7502702260919 2154.915755560873 535.7035271921347Q2154.6671230472857 539.6816474095365 2154.6671230472857 542.5657845671527L2154.6671230472857 542.5657845671527L2154.6671230472857 593.1873643335894L2125.030127427643 593.1873643335894L2125.030127427643 492.2177005656625L2136.3926332985966 492.2177005656625L2148.3767204535193 515.7383363510501Q2150.813319086678 510.0695150412526 2153.9709520092406 505.29577078037056Q2157.1037216804443 500.5220265194885 2161.2061581546395 497.0908978319796Q2165.333457880194 493.63490589311186 2170.5298774141747 491.6955722871285Q2175.726296948156 489.78110193250393 2182.2901953068686 489.78110193250393L2182.2901953068686 489.78110193250393Q2185.6964607430186 489.78110193250393 2189.8734869712907 490.3529567137555Q2194.0753764509213 490.92481149500696 2198.1032231710406 492.26742706838Q2202.1310698911598 493.63490589311186 2205.53733532731 495.8228720126828Q2208.94360076346 497.98597488089496 2210.8580711180844 501.14360780345754ZM2322.8421552379423 492.2177005656625L2322.8421552379423 593.1873643335894L2293.279749372376 593.1873643335894L2293.279749372376 581.1286874245905Q2288.0336033356775 588.2893038159134 2280.6492176821257 591.7452957547812Q2273.264832028574 595.201287693649 2264.4383777962134 595.201287693649L2264.4383777962134 595.201287693649Q2252.9018291657485 595.201287693649 2243.826742419801 591.0988512194533Q2234.726792422495 586.9715514938991 2228.4363898287284 579.8606616052937Q2222.145987234962 572.7249084653292 2218.8143115528883 563.1276934408477Q2215.5074991221727 553.5056151650074 2215.5074991221727 542.4911948130764L2215.5074991221727 542.4911948130764Q2215.5074991221727 531.4767744611455 2218.8143115528883 521.8546961853051Q2222.145987234962 512.2574811608235 2228.4363898287284 505.1217280208592Q2234.726792422495 497.98597488089496 2243.826742419801 493.8835384066995Q2252.9018291657485 489.78110193250393 2264.4383777962134 489.78110193250393L2264.4383777962134 489.78110193250393Q2270.306105116881 489.78110193250393 2275.5771144049386 491.5215295276172Q2280.8729869443546 493.2868203740892 2285.298645686214 496.46931654801057Q2289.6994411767146 499.65181272193195 2293.080843361506 504.1520612178676Q2296.4373822949383 508.6523097138033 2298.351852649563 514.1719515154481L2298.351852649563 514.1719515154481L2311.4796493669887 492.2177005656625L2322.8421552379423 492.2177005656625ZM2293.1057066128647 542.4911948130764L2293.1057066128647 542.4911948130764Q2293.1057066128647 538.5628010983922 2292.7327578424834 534.1868688592504Q2292.334945820743 529.8109366201086 2291.365279017751 525.5344573864018Q2290.3956122147597 521.2579781526949 2288.704911122364 517.3544476893694Q2286.9893467786096 513.4757804774029 2284.328978883222 510.442463811634Q2281.6686109878347 507.434010397224 2277.914260032662 505.69358280211077Q2274.1350458261304 503.9531552069975 2269.1623955543782 503.9531552069975L2269.1623955543782 503.9531552069975Q2264.189745282626 503.9531552069975 2260.5099840815296 505.74330930482824Q2256.830222880433 507.53346340265904 2254.219581487763 510.541916817069Q2251.5840768437347 513.5503702314791 2249.893375751339 517.4787639461633Q2248.177811407584 521.4320209122062 2247.233007855951 525.708500145913Q2246.2633410529597 529.9849793796199 2245.8655290312195 534.3111851160443Q2245.467717009479 538.6373908524686 2245.467717009479 542.4911948130764L2245.467717009479 542.4911948130764Q2245.467717009479 546.3449987736843 2245.8655290312195 550.6960677614675Q2246.2633410529597 555.0720000006093 2247.233007855951 559.3484792343161Q2248.177811407584 563.6498217193816 2249.893375751339 567.5782154340659Q2251.5840768437347 571.5066091487499 2254.219581487763 574.51506256316Q2256.830222880433 577.5483792289288 2260.5099840815296 579.3385333267597Q2264.189745282626 581.1286874245905 2269.1623955543782 581.1286874245905L2269.1623955543782 581.1286874245905Q2273.7123705530316 581.1286874245905 2277.2429522459756 579.2390803213245Q2280.798397190278 577.3743364694176 2283.4587650856656 574.2167035468549Q2286.1191329810526 571.0839338756512 2287.959013581601 567.0560871555319Q2289.7988941821495 563.0282404354127 2290.917740493294 558.7517612017059Q2292.0614500557967 554.4752819679991 2292.583578334331 550.223665985651Q2293.1057066128647 545.9969132546616 2293.1057066128647 542.4911948130764Z " fill="#301b89" transform="matrix(0.37669371904378973,0,0,0.3766937190437899,0,103.84674542686659)"/></g></svg>